HIERARCHY
ROOT Hips
{
	OFFSET 0.000000 71.427986 0.000000
	CHANNELS 6 Xposition Yposition Zposition Xrotation Yrotation Zrotation
	JOINT Pelvis
	{
		OFFSET 0.000000 0.000000 0.000000
		CHANNELS 3 Xrotation Yrotation Zrotation
		JOINT LeftUpLeg
		{
			OFFSET 6.797100 -2.508499 -1.318700
			CHANNELS 3 Xrotation Yrotation Zrotation
			JOINT LeftLeg
			{
				OFFSET 0.069008 -29.241863 0.690200
				CHANNELS 3 Xrotation Yrotation Zrotation
				JOINT LeftFoot
				{
					OFFSET -0.069008 -29.568123 -0.266800
					CHANNELS 3 Xrotation Yrotation Zrotation
					JOINT LeftToeBase
					{
						OFFSET 3.145500 -8.631000 16.059900
						CHANNELS 3 Xrotation Yrotation Zrotation
						End Site
						{
							OFFSET 0.000000 18.501587 0.000000
						}
					}
				}
			}
			JOINT Left_ShortSleeve
			{
				OFFSET 0.265923 -10.480953 1.153800
				CHANNELS 3 Xrotation Yrotation Zrotation
				End Site
				{
					OFFSET 1.725763 19.823879 0.000000
				}
			}
		}
		JOINT RightUpLeg
		{
			OFFSET -6.797100 -2.508499 -1.318700
			CHANNELS 3 Xrotation Yrotation Zrotation
			JOINT RightLeg
			{
				OFFSET -0.082453 -29.241932 0.688000
				CHANNELS 3 Xrotation Yrotation Zrotation
				JOINT RightFoot
				{
					OFFSET 0.082453 -29.568058 -0.264600
					CHANNELS 3 Xrotation Yrotation Zrotation
					JOINT RightToeBase
					{
						OFFSET -3.115300 -8.682800 16.113400
						CHANNELS 3 Xrotation Yrotation Zrotation
						End Site
						{
							OFFSET 0.000000 18.567114 0.000000
						}
					}
				}
			}
			JOINT Right_ShortSleeve
			{
				OFFSET -0.265923 -10.480953 1.153800
				CHANNELS 3 Xrotation Yrotation Zrotation
				End Site
				{
					OFFSET -1.725766 19.823910 0.000000
				}
			}
		}
	}
	JOINT Spine
	{
		OFFSET 0.000000 13.368103 0.470500
		CHANNELS 3 Xrotation Yrotation Zrotation
		JOINT Spine1
		{
			OFFSET 0.147000 13.837402 0.538800
			CHANNELS 3 Xrotation Yrotation Zrotation
			JOINT Spine2
			{
				OFFSET 0.168000 16.242897 -1.435500
				CHANNELS 3 Xrotation Yrotation Zrotation
				JOINT Neck
				{
					OFFSET 0.217200 18.631500 -1.679100
					CHANNELS 3 Xrotation Yrotation Zrotation
					JOINT Head
					{
						OFFSET 0.000000 6.599396 1.385900
						CHANNELS 3 Xrotation Yrotation Zrotation
						JOINT Hat
						{
							OFFSET -0.532200 27.220596 -10.096100
							CHANNELS 3 Xrotation Yrotation Zrotation
							End Site
							{
								OFFSET 0.000000 22.029861 0.000000
							}
						}
						JOINT HairD
						{
							OFFSET -10.777400 17.437393 -1.325900
							CHANNELS 3 Xrotation Yrotation Zrotation
							JOINT HairD1
							{
								OFFSET -3.290299 -11.051193 1.062200
								CHANNELS 3 Xrotation Yrotation Zrotation
								End Site
								{
									OFFSET 0.000000 11.579437 0.000000
								}
							}
						}
						JOINT HairB
						{
							OFFSET -10.777400 17.437393 1.467900
							CHANNELS 3 Xrotation Yrotation Zrotation
							JOINT HairB1
							{
								OFFSET -1.561200 -12.956299 3.590200
								CHANNELS 3 Xrotation Yrotation Zrotation
								End Site
								{
									OFFSET 0.000000 13.534866 0.000000
								}
							}
						}
						JOINT HairA
						{
							OFFSET 9.713100 17.437393 1.467900
							CHANNELS 3 Xrotation Yrotation Zrotation
							JOINT HairA1
							{
								OFFSET 1.561200 -12.956299 3.590200
								CHANNELS 3 Xrotation Yrotation Zrotation
								End Site
								{
									OFFSET 0.000000 13.534866 0.000000
								}
							}
						}
						JOINT HairC
						{
							OFFSET 9.713100 17.437393 -1.325900
							CHANNELS 3 Xrotation Yrotation Zrotation
							JOINT HairC1
							{
								OFFSET 3.290300 -11.051193 1.062200
								CHANNELS 3 Xrotation Yrotation Zrotation
								End Site
								{
									OFFSET 0.000000 11.579437 0.000000
								}
							}
						}
					}
				}
				JOINT LeftShoulder
				{
					OFFSET 5.101800 15.108002 -2.763700
					CHANNELS 3 Xrotation Yrotation Zrotation
					JOINT LeftArm
					{
						OFFSET 9.825497 2.506317 -1.597400
						CHANNELS 3 Xrotation Yrotation Zrotation
						JOINT LeftForeArm
						{
							OFFSET 21.966244 0.000000 0.000000
							CHANNELS 3 Xrotation Yrotation Zrotation
							JOINT LeftHand
							{
								OFFSET 33.879036 0.000000 0.000000
								CHANNELS 3 Xrotation Yrotation Zrotation
								JOINT LeftHandThumb1
								{
									OFFSET 6.715286 -2.359680 3.363841
									CHANNELS 3 Xrotation Yrotation Zrotation
									JOINT LeftHandThumb2
									{
										OFFSET 2.507072 -1.447464 1.447461
										CHANNELS 3 Xrotation Yrotation Zrotation
										JOINT LeftHandThumb3
										{
											OFFSET 2.898338 -1.673355 1.673357
											CHANNELS 3 Xrotation Yrotation Zrotation
											End Site
											{
												OFFSET -0.295959 3.727692 -0.131651
											}
										}
									}
								}
								JOINT LeftHandIndex1
								{
									OFFSET 14.190811 -0.254547 3.840278
									CHANNELS 3 Xrotation Yrotation Zrotation
									JOINT LeftHandIndex2
									{
										OFFSET 3.551727 0.000000 -0.000000
										CHANNELS 3 Xrotation Yrotation Zrotation
										JOINT LeftHandIndex3
										{
											OFFSET 2.894196 0.000000 0.000000
											CHANNELS 3 Xrotation Yrotation Zrotation
											End Site
											{
												OFFSET -1.000603 2.690872 0.366626
											}
										}
									}
								}
								JOINT LeftHandMiddle1
								{
									OFFSET 13.776489 0.000000 0.000000
									CHANNELS 3 Xrotation Yrotation Zrotation
									JOINT LeftHandMiddle2
									{
										OFFSET 3.438232 0.000000 0.000000
										CHANNELS 3 Xrotation Yrotation Zrotation
										JOINT LeftHandMiddle3
										{
											OFFSET 3.691551 0.000000 0.000000
											CHANNELS 3 Xrotation Yrotation Zrotation
											End Site
											{
												OFFSET -1.082298 3.499527 0.457670
											}
										}
									}
								}
								JOINT LeftHandRing1
								{
									OFFSET 13.966164 -0.268127 -3.067488
									CHANNELS 3 Xrotation Yrotation Zrotation
									JOINT LeftHandRing2
									{
										OFFSET 3.162567 0.000000 0.000000
										CHANNELS 3 Xrotation Yrotation Zrotation
										JOINT LeftHandRing3
										{
											OFFSET 3.324348 0.000000 0.000000
											CHANNELS 3 Xrotation Yrotation Zrotation
											End Site
											{
												OFFSET -0.861900 3.184998 0.405154
											}
										}
									}
								}
								JOINT LeftHandPinky1
								{
									OFFSET 13.131393 -0.168503 -5.746925
									CHANNELS 3 Xrotation Yrotation Zrotation
									JOINT LeftHandPinky2
									{
										OFFSET 2.849182 0.000000 0.000000
										CHANNELS 3 Xrotation Yrotation Zrotation
										JOINT LeftHandPinky3
										{
											OFFSET 2.805038 0.000000 0.000000
											CHANNELS 3 Xrotation Yrotation Zrotation
											End Site
											{
												OFFSET -0.882500 2.642609 0.325652
											}
										}
									}
								}
							}
							JOINT Left_Sleeve
							{
								OFFSET 6.592125 -0.646545 0.805568
								CHANNELS 3 Xrotation Yrotation Zrotation
								End Site
								{
									OFFSET -0.000179 20.275787 -0.000000
								}
							}
						}
					}
				}
				JOINT RightShoulder
				{
					OFFSET -5.731700 15.108002 -2.763700
					CHANNELS 3 Xrotation Yrotation Zrotation
					JOINT RightArm
					{
						OFFSET -9.825497 2.506317 -1.597400
						CHANNELS 3 Xrotation Yrotation Zrotation
						JOINT RightForeArm
						{
							OFFSET -21.966242 0.000000 0.000000
							CHANNELS 3 Xrotation Yrotation Zrotation
							JOINT RightHand
							{
								OFFSET -33.879032 0.000000 0.000000
								CHANNELS 3 Xrotation Yrotation Zrotation
								JOINT RightHandThumb1
								{
									OFFSET -6.715286 -2.359680 3.363841
									CHANNELS 3 Xrotation Yrotation Zrotation
									JOINT RightHandThumb2
									{
										OFFSET -2.507072 -1.447464 1.447461
										CHANNELS 3 Xrotation Yrotation Zrotation
										JOINT RightHandThumb3
										{
											OFFSET -2.898338 -1.673355 1.673357
											CHANNELS 3 Xrotation Yrotation Zrotation
											End Site
											{
												OFFSET 0.295959 3.727692 -0.131651
											}
										}
									}
								}
								JOINT RightHandIndex1
								{
									OFFSET -14.190811 -0.254547 3.840278
									CHANNELS 3 Xrotation Yrotation Zrotation
									JOINT RightHandIndex2
									{
										OFFSET -3.551727 0.000000 -0.000000
										CHANNELS 3 Xrotation Yrotation Zrotation
										JOINT RightHandIndex3
										{
											OFFSET -2.894196 0.000000 0.000000
											CHANNELS 3 Xrotation Yrotation Zrotation
											End Site
											{
												OFFSET 1.000603 2.690872 0.366626
											}
										}
									}
								}
								JOINT RightHandMiddle1
								{
									OFFSET -13.776489 0.000000 0.000000
									CHANNELS 3 Xrotation Yrotation Zrotation
									JOINT RightHandMiddle2
									{
										OFFSET -3.438232 0.000000 0.000000
										CHANNELS 3 Xrotation Yrotation Zrotation
										JOINT RightHandMiddle3
										{
											OFFSET -3.691551 0.000000 0.000000
											CHANNELS 3 Xrotation Yrotation Zrotation
											End Site
											{
												OFFSET 1.082298 3.499527 0.457670
											}
										}
									}
								}
								JOINT RightHandRing1
								{
									OFFSET -13.966164 -0.268127 -3.067488
									CHANNELS 3 Xrotation Yrotation Zrotation
									JOINT RightHandRing2
									{
										OFFSET -3.162567 0.000000 0.000000
										CHANNELS 3 Xrotation Yrotation Zrotation
										JOINT RightHandRing3
										{
											OFFSET -3.324348 0.000000 0.000000
											CHANNELS 3 Xrotation Yrotation Zrotation
											End Site
											{
												OFFSET 0.861900 3.184998 0.405154
											}
										}
									}
								}
								JOINT RightHandPinky1
								{
									OFFSET -13.131393 -0.168503 -5.746925
									CHANNELS 3 Xrotation Yrotation Zrotation
									JOINT RightHandPinky2
									{
										OFFSET -2.849182 0.000000 0.000000
										CHANNELS 3 Xrotation Yrotation Zrotation
										JOINT RightHandPinky3
										{
											OFFSET -2.805038 0.000000 0.000000
											CHANNELS 3 Xrotation Yrotation Zrotation
											End Site
											{
												OFFSET 0.882500 2.642609 0.325652
											}
										}
									}
								}
							}
							JOINT Right_Sleeve
							{
								OFFSET -6.592125 -0.646545 0.805568
								CHANNELS 3 Xrotation Yrotation Zrotation
								End Site
								{
									OFFSET 0.000179 20.275787 -0.000000
								}
							}
						}
					}
				}
				JOINT Bind_Right_JacketString
				{
					OFFSET -3.534800 11.969597 7.200700
					CHANNELS 3 Xrotation Yrotation Zrotation
					JOINT Bind_Right_JacketString1
					{
						OFFSET -0.319900 -6.102600 2.794100
						CHANNELS 3 Xrotation Yrotation Zrotation
						End Site
						{
							OFFSET 0.000000 6.719452 0.000000
						}
					}
				}
				JOINT Bind_Left_JacketString
				{
					OFFSET 2.904800 11.969597 7.200700
					CHANNELS 3 Xrotation Yrotation Zrotation
					JOINT Bind_Left_JacketString1
					{
						OFFSET 0.364800 -5.904503 3.186800
						CHANNELS 3 Xrotation Yrotation Zrotation
						End Site
						{
							OFFSET 0.000000 6.719513 0.000000
						}
					}
				}
				JOINT HairE
				{
					OFFSET 5.915200 17.612701 -11.592200
					CHANNELS 3 Xrotation Yrotation Zrotation
					JOINT HairE1
					{
						OFFSET 0.289200 -7.171898 -1.284500
						CHANNELS 3 Xrotation Yrotation Zrotation
						End Site
						{
							OFFSET 0.000000 7.291756 0.000000
						}
					}
				}
				JOINT HairF
				{
					OFFSET -0.864800 17.612701 -11.592200
					CHANNELS 3 Xrotation Yrotation Zrotation
					JOINT HairF1
					{
						OFFSET 0.000000 -14.087097 -2.127501
						CHANNELS 3 Xrotation Yrotation Zrotation
						End Site
						{
							OFFSET 0.000000 14.246841 0.000000
						}
					}
				}
				JOINT HairG
				{
					OFFSET -8.087700 17.612701 -11.592200
					CHANNELS 3 Xrotation Yrotation Zrotation
					JOINT HairG1
					{
						OFFSET -0.293600 -6.081398 -0.910100
						CHANNELS 3 Xrotation Yrotation Zrotation
						End Site
						{
							OFFSET 0.000000 6.156120 0.000000
						}
					}
				}
			}
		}
	}
	JOINT Pouch
	{
		OFFSET 0.000000 4.394501 10.847300
		CHANNELS 3 Xrotation Yrotation Zrotation
		End Site
		{
			OFFSET 0.000000 21.880577 0.000000
		}
	}
	JOINT Bag
	{
		OFFSET -13.229000 4.813004 -0.593300
		CHANNELS 3 Xrotation Yrotation Zrotation
		End Site
		{
			OFFSET 0.000000 21.880577 0.000000
		}
	}
	JOINT OccupyGuyFacialAnim_Joint
	{
		OFFSET 1.000000 -70.206398 -1.655000
		CHANNELS 3 Xrotation Yrotation Zrotation
		End Site
		{
			OFFSET 0.000000 21.880577 0.000000
		}
	}
}
MOTION
Frames: 4
Frame Time: 0.033333
-44.727585 105.007507 10.282228 -17.598899 -8.584750 25.478028 0.000002 -0.000001 0.000002 -48.013887 -14.216345 21.197542 40.743721 6.534092 -1.578046 31.880673 6.943298 33.250614 0.000001 0.000000 0.000000 -0.000001 -0.000002 -0.000001 16.481240 -27.391036 9.277869 26.190927 -8.212896 21.335795 62.682688 5.252280 7.100898 -0.000002 0.000002 -0.000003 -0.000001 -0.000003 -0.000003 -2.783781 1.905161 -0.892570 -5.493288 3.444429 -2.801973 -5.493300 3.444433 -2.801969 -0.815511 -4.088775 -9.521915 0.813026 25.124352 6.202219 -0.000001 0.000001 -0.000000 -0.000001 0.000001 -0.000000 -0.000001 0.000001 0.000000 -0.000001 0.000001 0.000000 0.000001 0.000001 -0.000000 -0.000001 0.000001 0.000000 0.000001 0.000001 -0.000000 -0.000001 0.000001 -0.000000 -0.000001 0.000001 -0.000000 8.114909 -1.073347 29.133619 -47.887860 -0.676564 -44.329936 -246.987154 -83.144446 -215.737003 14.495741 15.594749 -28.397249 -32.580358 8.396311 -10.185180 -14.129051 5.640693 8.762270 0.000006 -0.000000 -0.000001 4.738261 -2.943812 -35.157033 -6.343480 -3.012662 -65.227883 -0.000000 0.000000 0.000003 -4.126222 -1.693360 -48.419559 -2.165725 -3.654114 -49.410579 0.000002 0.000001 -0.000001 -8.615350 6.590051 -58.242143 0.492800 -6.524688 -61.306166 -0.000001 0.000001 0.000002 -10.523713 6.572770 -64.732114 2.215224 -5.217636 -60.557325 -0.000002 -0.000001 -0.000001 0.000001 0.000000 0.000002 3.463135 -13.672680 -40.241893 -94.551845 18.040743 67.827603 -15.105500 47.345925 -23.573583 46.384405 21.656175 21.977462 -17.329594 6.476580 -26.583668 3.044995 -20.331638 1.155490 -0.000000 -0.000001 0.000002 -8.188094 4.700030 83.364508 -5.498924 0.854585 81.221843 -0.000000 -0.000001 0.000004 -13.107966 1.843983 86.687900 -5.616540 1.088317 83.769183 -0.000000 -0.000001 0.000003 -13.659295 -7.093882 77.684762 -0.196934 7.087535 77.455377 -0.000000 -0.000001 -0.000001 -17.946083 -11.668462 76.747257 1.088817 11.887420 73.267767 -0.000000 0.000001 0.000001 0.000001 0.000002 0.000002 -0.000001 0.000000 -0.000001 -0.000003 -0.000000 0.000001 -0.000001 0.000000 -0.000000 -0.000001 0.000000 -0.000000 -0.000001 0.000000 -0.000001 -0.000003 -0.000000 0.000001 -0.000001 0.000000 -0.000000 -0.000001 0.000000 -0.000000 -0.000001 0.000000 -0.000001 -0.000003 -0.000000 0.000001 0.000002 -0.000001 0.000002 0.000002 -0.000001 0.000002 0.000002 -0.000001 0.000002 
-47.899853 101.944160 10.540928 -17.231934 -5.214659 24.002567 0.000001 0.000000 0.000001 -48.181592 -14.758989 20.928200 40.379952 2.266126 -0.431470 31.160870 6.512025 27.663465 0.000003 -0.000000 -0.000001 0.000002 0.000005 -0.000002 14.328799 -27.289116 8.797659 22.356567 -6.806676 17.382702 65.787829 4.675340 4.191700 0.000002 0.000002 -0.000002 -0.000001 0.000000 -0.000004 -2.827535 1.812830 -1.208055 -5.595928 3.319272 -2.954942 -5.595920 3.319273 -2.954941 -1.550708 -3.024917 -4.668437 -0.215684 25.485961 3.956079 0.000003 0.000000 0.000000 0.000003 0.000000 0.000000 0.000003 0.000000 0.000001 0.000003 0.000000 0.000001 0.000003 0.000002 0.000002 0.000003 0.000000 0.000001 0.000003 0.000002 0.000002 0.000003 0.000000 0.000000 0.000003 0.000000 0.000000 8.974429 -2.283545 30.552911 -53.318472 -2.943967 -43.957106 -138.861789 -100.056957 -104.476718 24.641200 18.887666 -23.329389 -25.945522 8.331134 0.248702 -12.660466 6.816566 12.176509 0.000002 -0.000000 0.000000 1.211479 -8.550557 -63.615911 -8.107406 -2.963897 -77.934747 0.000002 0.000001 0.000000 -6.087307 -3.626612 -66.022726 -4.262885 -4.404933 -64.365620 -0.000002 0.000001 -0.000001 -10.194985 6.249587 -67.296358 -0.171964 -6.742871 -73.013629 -0.000001 0.000001 0.000000 -13.747295 6.346493 -67.633455 1.247947 -7.454250 -66.273004 -0.000001 -0.000003 -0.000001 0.000002 -0.000001 -0.000000 4.357363 -12.495385 -40.085909 -96.256688 21.686703 63.249690 -15.603680 46.122516 -23.695740 46.306401 16.989949 24.598219 -17.318838 6.464522 -26.590107 3.046395 -20.336863 1.156221 0.000001 0.000003 0.000000 -8.184226 4.697434 83.380368 -5.507840 0.855484 81.296190 -0.000001 0.000000 -0.000001 -13.107364 1.842419 86.678686 -5.620977 1.088473 83.781826 -0.000000 -0.000001 -0.000001 -13.662867 -7.093623 77.675411 -0.196041 7.087054 77.425051 -0.000000 -0.000001 -0.000000 -17.954742 -11.663198 76.741793 1.091055 11.885855 73.234087 0.000001 0.000000 -0.000001 0.000000 0.000000 0.000000 0.000000 0.000000 -0.000000 0.000000 0.000000 -0.000001 0.000000 0.000000 -0.000000 0.000000 0.000000 -0.000000 0.000000 0.000000 -0.000000 0.000000 0.000000 -0.000000 0.000000 0.000000 -0.000000 0.000000 0.000000 -0.000000 0.000000 0.000000 -0.000000 0.000000 0.000000 -0.000000 0.000001 0.000000 0.000001 0.000001 0.000000 0.000001 0.000001 0.000000 0.000001 
-51.814217 99.132217 10.863895 -16.077453 -2.622501 21.605551 -0.000001 0.000000 -0.000000 -47.283726 -15.374660 21.455047 40.888753 -0.093686 0.300734 28.549091 5.904190 25.465184 0.000001 -0.000000 -0.000002 -0.000000 0.000003 -0.000001 9.746859 -27.341746 4.653545 25.156732 1.473608 17.696988 63.229097 6.004710 6.344694 -0.000002 -0.000000 0.000001 -0.000000 -0.000001 -0.000001 -2.880152 1.589038 -1.455229 -5.715432 2.905707 -3.112076 -5.715414 2.905708 -3.112086 -3.590973 -2.184133 -0.515398 -0.338814 25.161348 2.537773 -0.000001 0.000001 0.000000 -0.000001 0.000001 0.000000 -0.000001 0.000001 -0.000000 -0.000001 0.000001 0.000000 0.000003 0.000001 0.000001 -0.000001 0.000001 0.000000 0.000003 0.000001 0.000001 -0.000001 0.000001 0.000000 -0.000001 0.000001 0.000000 9.449942 -2.840092 31.988658 -55.680716 -4.930514 -37.396512 -182.164943 -105.527468 -146.079059 23.091674 15.517578 -19.333696 -22.881738 8.856929 4.738068 -11.658931 8.392855 13.817271 -0.000001 0.000001 -0.000000 -1.282312 -10.184292 -76.279860 -8.871577 -2.786464 -83.509923 0.000001 0.000000 -0.000004 -7.273158 -4.186954 -73.794429 -5.218661 -4.490895 -70.944710 0.000001 -0.000000 0.000001 -10.971493 6.250773 -71.306649 -0.446146 -6.834578 -78.179179 -0.000001 0.000003 -0.000000 -15.217030 6.362518 -68.990703 0.708761 -8.360467 -68.880689 -0.000003 0.000001 -0.000002 -0.000001 -0.000001 -0.000000 4.631605 -11.931715 -39.586154 -96.386414 25.504753 58.182789 -16.361561 45.385760 -22.257141 44.291110 11.305145 25.940492 -17.323979 6.464635 -26.577330 3.045838 -20.334863 1.155931 0.000001 0.000000 0.000003 -8.188370 4.700187 83.347767 -5.504971 0.854865 81.273220 -0.000000 -0.000000 0.000004 -13.105376 1.844854 86.649904 -5.618567 1.089278 83.768070 -0.000001 -0.000000 0.000001 -13.658542 -7.092409 77.653138 -0.193884 7.087143 77.409689 -0.000001 -0.000001 0.000001 -17.944174 -11.666532 76.732449 1.093268 11.886015 73.220167 0.000003 -0.000000 0.000000 -0.000004 -0.000000 -0.000000 0.000002 -0.000000 -0.000000 0.000001 -0.000000 -0.000001 0.000002 -0.000000 -0.000000 0.000002 -0.000000 -0.000000 0.000002 -0.000000 -0.000000 0.000001 -0.000000 -0.000001 0.000002 -0.000000 -0.000000 0.000002 -0.000000 -0.000000 0.000002 -0.000000 -0.000000 0.000001 -0.000000 -0.000001 -0.000001 0.000000 -0.000000 -0.000001 0.000000 -0.000000 -0.000001 0.000000 -0.000000 
-56.664162 96.614891 11.176357 -14.063498 -1.122358 17.872851 0.000000 -0.000001 0.000001 -44.945486 -15.754431 22.166593 42.202912 -0.303534 0.842786 23.385994 4.587024 27.211521 0.000001 -0.000001 -0.000002 -0.000000 0.000000 0.000000 5.216491 -26.881926 -2.102126 30.066441 12.523970 20.785871 56.641734 7.487504 10.053261 0.000000 -0.000000 0.000001 -0.000000 0.000001 -0.000003 -2.891957 1.346793 -1.521345 -5.751237 2.433062 -3.051037 -5.751243 2.433059 -3.051027 -8.118437 -1.564802 0.236337 0.648665 23.371715 3.459738 -0.000003 -0.000000 -0.000000 -0.000003 -0.000000 -0.000000 -0.000003 -0.000000 0.000000 -0.000003 -0.000000 0.000001 0.000000 -0.000000 -0.000001 -0.000003 -0.000000 0.000001 0.000000 -0.000000 -0.000001 -0.000003 -0.000000 -0.000000 -0.000003 -0.000000 -0.000000 9.420369 -2.662411 32.276452 -55.686440 -8.002940 -26.250476 -201.678957 -116.008441 -166.064616 17.313263 8.870508 -15.888149 -22.871423 8.859543 4.931136 -11.608953 8.482389 13.954257 -0.000001 -0.000002 -0.000003 -1.333204 -10.215776 -76.538034 -8.893739 -2.781257 -83.673417 0.000002 0.000001 -0.000003 -7.309542 -4.199961 -74.085102 -5.258707 -4.494334 -71.212802 0.000001 0.000001 -0.000004 -11.023917 6.253427 -71.563929 -0.461350 -6.838263 -78.466586 0.000000 -0.000000 -0.000001 -15.342452 6.375333 -69.265618 0.712140 -8.361746 -69.145359 0.000001 0.000001 0.000005 0.000000 -0.000001 0.000001 4.312526 -12.179564 -38.912551 -97.741756 28.425219 55.081750 -17.357505 45.143930 -22.045692 43.065033 6.352269 27.759309 -17.329539 6.469170 -26.571038 3.045156 -20.332293 1.155560 0.000000 0.000000 0.000003 -8.191074 4.701979 83.332037 -5.500756 0.854300 81.238502 -0.000001 0.000000 0.000002 -13.105000 1.846161 86.644740 -5.616193 1.089447 83.759184 -0.000000 -0.000001 -0.000001 -13.655902 -7.092162 77.649948 -0.193564 7.087368 77.416485 -0.000000 -0.000000 -0.000000 -17.937774 -11.669494 76.731629 1.093095 11.886649 73.228623 0.000000 0.000000 0.000001 -0.000001 -0.000000 0.000000 -0.000002 0.000000 -0.000000 -0.000002 0.000001 -0.000000 -0.000002 0.000000 -0.000000 -0.000002 0.000000 -0.000000 -0.000002 0.000000 -0.000000 -0.000002 0.000001 0.000000 -0.000002 0.000000 -0.000000 -0.000002 0.000000 -0.000000 -0.000002 0.000000 -0.000000 -0.000002 0.000001 0.000000 0.000000 -0.000001 0.000001 0.000000 -0.000001 0.000001 0.000000 -0.000001 0.000001 
